<svg width="17" height="16" viewBox="0 0 17 16" fill="none" xmlns="http://www.w3.org/2000/svg">
<path d="M7.52652 0.833242C7.82783 -0.0839528 9.1253 -0.0839509 9.42661 0.833244L10.608 4.42934C10.7428 4.83979 11.126 5.11723 11.558 5.11723H15.3574C16.3288 5.11723 16.7298 6.36245 15.941 6.92931L12.8862 9.12445C12.5318 9.37908 12.3835 9.83408 12.5197 10.2486L13.691 13.814C13.993 14.7334 12.9432 15.5029 12.1574 14.9382L9.06012 12.7125C8.71143 12.462 8.2417 12.462 7.89301 12.7125L4.79576 14.9382C4.0099 15.5029 2.96013 14.7334 3.26216 13.814L4.43343 10.2486C4.56962 9.83408 4.42129 9.37908 4.06694 9.12445L1.01217 6.92931C0.223328 6.36246 0.624331 5.11723 1.59572 5.11723H5.3951C5.82713 5.11723 6.21031 4.83979 6.34515 4.42934L7.52652 0.833242Z" fill="#C4C4C4"/>
</svg>
